<mxfile host="app.diagrams.net" modified="2024-05-16T22:34:21.983Z" agent="Mozilla/5.0 (Windows NT 10.0; Win64; x64) AppleWebKit/537.36 (KHTML, like Gecko) Chrome/125.0.0.0 Safari/537.36" version="24.2.0" etag="xTxov4eHvAnZm5vhuIVo" type="github">
  <diagram name="Page-1" id="u07AYXo-3MS5_uJHy7ba">
    <mxGraphModel>
      <root>
        <mxCell id="0" />
        <mxCell id="1" parent="0" />
      </root>
    </mxGraphModel>
  </diagram>
</mxfile>
